<svg width="272" height="272" viewBox="0 0 272 272" fill="none" xmlns="http://www.w3.org/2000/svg">
<path d="M135.71 270.92C210.384 270.92 270.92 210.384 270.92 135.71C270.92 61.0356 210.384 0.5 135.71 0.5C61.0356 0.5 0.5 61.0356 0.5 135.71C0.5 210.384 61.0356 270.92 135.71 270.92Z" stroke="#41392F" stroke-miterlimit="10"/>
<path d="M135.71 260.71C204.746 260.71 260.71 204.746 260.71 135.71C260.71 66.6744 204.746 10.71 135.71 10.71C66.6744 10.71 10.71 66.6744 10.71 135.71C10.71 204.746 66.6744 260.71 135.71 260.71Z" fill="#728040"/>
<path d="M152.56 183.92C141.28 183.92 130.14 183.92 118.86 183.92C118.86 184.35 118.86 184.71 118.86 185.08C118.86 187.42 118.88 189.75 118.85 192.09C118.79 197.14 114.86 201.11 109.83 201.17C106.84 201.21 103.85 201.21 100.86 201.17C95.84 201.1 91.88 197.1 91.83 192.07C91.8 189.36 91.83 186.66 91.83 183.95C91.1 183.8 90.46 183.7 89.84 183.52C85.89 182.39 83.19 178.87 83.17 174.73C83.14 169.96 83.16 165.18 83.16 160.4C83.16 139.17 83.14 117.94 83.17 96.71C83.19 85.49 90.1 75.64 100.55 71.81C103.48 70.74 106.51 70.21 109.63 70.21C127.01 70.21 144.4 70.17 161.78 70.22C176.54 70.26 188.24 82.05 188.25 96.82C188.27 122.55 188.25 148.28 188.25 174.01C188.25 179.5 185.19 183.04 179.58 183.89C179.58 184.23 179.58 184.59 179.58 184.95C179.58 187.29 179.59 189.62 179.58 191.96C179.55 197.1 175.59 201.1 170.44 201.16C167.49 201.19 164.53 201.2 161.58 201.16C156.59 201.09 152.65 197.16 152.57 192.17C152.53 189.8 152.56 187.43 152.56 185.06C152.55 184.71 152.56 184.34 152.56 183.92ZM178.51 97.32C149.93 97.32 121.42 97.32 92.9 97.32C92.9 114.3 92.9 131.19 92.9 148.1C121.47 148.1 149.99 148.1 178.51 148.1C178.51 131.12 178.51 114.23 178.51 97.32ZM152.5 79.98C141.28 79.98 130.12 79.98 118.95 79.98C118.95 82.53 118.95 85.01 118.95 87.48C130.18 87.48 141.32 87.48 152.5 87.48C152.5 84.94 152.5 82.49 152.5 79.98ZM109.17 166.03C109.16 161.51 105.48 157.84 100.97 157.87C96.52 157.9 92.84 161.59 92.85 166.03C92.86 170.54 96.55 174.19 101.07 174.17C105.56 174.15 109.17 170.52 109.17 166.03ZM170.37 174.18C174.85 174.19 178.52 170.58 178.56 166.12C178.6 161.62 174.92 157.9 170.42 157.88C165.95 157.87 162.27 161.5 162.25 165.96C162.23 170.51 165.84 174.17 170.37 174.18Z" fill="#41392F"/>
<path d="M79.59 104.92C79.59 113.93 79.59 122.82 79.59 131.99C77.43 131.86 75.26 131.95 73.18 131.55C71.27 131.19 69.96 129.22 69.95 127.24C69.92 121.33 69.91 115.43 69.95 109.52C69.97 107.19 71.77 105.14 74.05 104.95C75.86 104.79 77.68 104.92 79.59 104.92Z" fill="#41392F"/>
<path d="M191.87 104.9C193.68 104.9 195.43 104.81 197.17 104.92C199.49 105.06 201.42 107.09 201.44 109.45C201.49 115.39 201.49 121.33 201.44 127.27C201.42 129.71 199.41 131.74 196.99 131.85C195.31 131.93 193.63 131.87 191.86 131.87C191.87 122.89 191.87 113.95 191.87 104.9Z" fill="#41392F"/>
</svg>
