<svg width="199" height="47" viewBox="0 0 199 47" fill="none" xmlns="http://www.w3.org/2000/svg">
<path d="M153.243 46.8045V41.8883H156.363C157.382 41.8883 158.21 41.0604 158.21 40.0415V19.2306H163.126V40.0415C163.126 43.7732 160.095 46.8045 156.363 46.8045H153.243Z" fill="white"/>
<path d="M99.9931 46.8045V41.8883H103.114C104.132 41.8883 104.96 41.0604 104.96 40.0415V19.2306H109.876V40.0415C109.876 43.7732 106.845 46.8045 103.114 46.8045H99.9931Z" fill="white"/>
<path d="M26.1105 36.883V10.2134H31.2814V31.9668H87.2952L91.3708 36.883H26.1105Z" fill="white"/>
<path d="M172.526 10.2134H167.355V36.883H172.526V10.2134Z" fill="white"/>
<path d="M141.742 10.2134H136.571V36.883H141.742V10.2134Z" fill="white"/>
<path d="M112.729 36.883L118.079 27.904L120.498 31.9668H124.014L111.061 10.2134H116.792L132.674 36.883H112.729Z" fill="white"/>
<path d="M95.1661 36.883L83.7927 23.1661L94.8095 10.2134H101.05L90.2882 23.2298L101.407 36.883H95.1661Z" fill="white"/>
<path d="M7.5412 36.883C3.8095 36.883 0.778275 33.8518 0.778275 30.1201V19.2306H5.69444V30.1201C5.69444 31.139 6.52231 31.9668 7.5412 31.9668H16.966V19.2306H21.8821V36.883H7.5412Z" fill="white"/>
<path d="M124.459 17.1929L128.611 10.2134H134.33L127.325 21.9944L124.459 17.1929Z" fill="white"/>
<path d="M11.3366 19.3325C9.92286 19.3325 8.76387 18.1735 8.76387 16.7598C8.76387 15.3334 9.92286 14.1871 11.3366 14.1871C12.7503 14.1871 13.9093 15.3461 13.9093 16.7598C13.9093 18.1735 12.7503 19.3325 11.3366 19.3325Z" fill="white"/>
<path d="M111.201 7.32231V2.71181C111.201 1.3363 112.322 0.215515 113.685 0.215515H116.843V3.11936H114.245V4.25289H118.295V7.30957H111.201V7.32231Z" fill="white"/>
<path d="M176.741 36.8957V31.9159H193.642C193.515 29.8017 192.802 28.0823 191.49 26.6559C190.076 25.102 188.217 24.3124 185.95 24.3124H180.053V19.3326H185.95C189.579 19.3326 192.636 20.6316 195.043 23.1916C197.298 25.5605 198.52 28.4899 198.673 31.9159H198.686L198.699 32.1579V36.9085H176.741V36.8957Z" fill="white"/>
</svg>
