<svg width="308" height="91" viewBox="0 0 308 91" fill="none" xmlns="http://www.w3.org/2000/svg">
<path d="M6.93 63.23C5.93 63.23 4.92 63.19 3.95 63.11C2.98 63.03 1.87 62.91 0.65 62.76L0 62.68V61.47L1.36 56.31L2.07 56.5C2.76 56.68 3.57 56.84 4.48 56.97C5.38 57.1 6.36 57.16 7.38 57.16C8.9 57.16 10.46 57.03 12.02 56.77C12.96 56.61 13.88 56.37 14.77 56.04C15.24 55.13 15.68 54.12 16.06 53.04C16.6 51.5 17.04 49.61 17.37 47.41C17.71 45.2 17.88 42.48 17.88 39.32C17.88 36.27 17.77 33.39 17.57 30.78C17.36 28.17 17.1 25.59 16.8 23.13L16.71 22.41L22.53 21.62H23.69L23.77 22.27C24.08 24.72 24.3 27.28 24.43 29.89C24.56 32.5 24.63 35.59 24.63 39.1C24.63 40.06 24.61 41.02 24.57 41.97H38.59C38.29 41.57 38.03 41.14 37.8 40.69C37.22 39.52 36.92 38.06 36.92 36.35C36.92 34.65 37.3 32.94 38.04 31.26C38.77 29.61 39.88 27.93 41.34 26.26C42.77 24.61 44.57 22.9 46.67 21.16C48.76 19.43 51.22 17.63 53.98 15.78L54.17 15.66H55.34L57.6 21.02L57.11 21.36C53.59 23.82 50.78 25.96 48.77 27.7C46.8 29.42 45.39 30.98 44.6 32.36C43.83 33.69 43.44 35.07 43.44 36.46C43.44 38.1 44.1 39.39 45.46 40.4C46.87 41.45 48.56 41.97 50.5 41.97H64.08V43.3L62.25 48.32H23.89C23.8 48.8 23.71 49.25 23.62 49.67C22.93 52.67 21.86 55.21 20.44 57.21C18.99 59.24 17.11 60.77 14.86 61.76C12.62 62.73 9.96 63.23 6.93 63.23Z" fill="#728040"/>
<path d="M115.29 15.13C114.22 15.13 113.3 14.77 112.57 14.06C111.83 13.35 111.46 12.42 111.46 11.29C111.46 10.17 111.83 9.24001 112.57 8.52001C113.3 7.81001 114.22 7.45001 115.29 7.45001C116.36 7.45001 117.28 7.81001 118.01 8.52001C118.75 9.24001 119.12 10.17 119.12 11.29C119.12 12.41 118.75 13.34 118.01 14.06C117.27 14.77 116.36 15.13 115.29 15.13Z" fill="#728040"/>
<path d="M109.6 7.67C108.53 7.67 107.61 7.31 106.88 6.6C106.14 5.89 105.77 4.96 105.77 3.83C105.77 2.71 106.15 1.78 106.88 1.06C107.61 0.36 108.53 0 109.6 0C110.67 0 111.59 0.36 112.32 1.07C113.06 1.79 113.43 2.72 113.43 3.84C113.43 4.96 113.06 5.89 112.32 6.61C111.59 7.31 110.67 7.67 109.6 7.67Z" fill="#728040"/>
<path d="M105.69 16.05C104.62 16.05 103.7 15.69 102.97 14.98C102.23 14.27 101.86 13.34 101.86 12.21C101.86 11.09 102.23 10.16 102.97 9.43999C103.7 8.72999 104.62 8.37 105.69 8.37C106.76 8.37 107.68 8.72999 108.41 9.43999C109.15 10.16 109.52 11.09 109.52 12.21C109.52 13.33 109.15 14.26 108.41 14.98C107.68 15.69 106.77 16.05 105.69 16.05Z" fill="#728040"/>
<path d="M158.54 25.88C156.95 26.13 155.54 26.5 154.33 27C152.38 27.8 150.79 28.77 149.62 29.86C148.46 30.95 147.62 32.1 147.13 33.28C146.64 34.46 146.38 35.57 146.38 36.58C146.38 38.2 146.76 39.54 147.52 40.55C148.29 41.58 149.3 42.35 150.53 42.83C151.79 43.33 153.12 43.58 154.47 43.58C156.85 43.58 159.11 43.19 161.18 42.42C162.17 42.05 163.08 41.67 163.9 41.27C163.52 40.45 163.16 39.55 162.83 38.59L158.54 25.88ZM153.69 49.93C152.42 49.93 151.1 49.77 149.79 49.45C148.74 49.19 147.7 48.82 146.69 48.32H70.4V4.04999L77.61 3.17999V4.54999L77.59 4.62999C77.45 5.26999 77.35 6.09999 77.29 7.08999C77.23 8.11999 77.2 9.16999 77.18 10.22C77.16 11.29 77.15 12.2 77.15 12.96V41.98H91.51C91.5 41.51 91.5 41.01 91.5 40.48V22.64L97 21.85H98.25V41.97H107.11C107.1 41.45 107.09 40.95 107.09 40.47V20.57L112.59 19.78H113.84V41.97H122.88C122.86 41.82 122.85 41.67 122.83 41.52C122.73 40.55 122.68 39.5 122.68 38.41V18.74L128.18 17.95H129.43V41.97H140.54C140.52 41.91 140.49 41.86 140.47 41.8C139.92 40.4 139.64 38.8 139.64 37.03C139.64 34.2 140.3 31.62 141.6 29.38C142.89 27.16 144.64 25.25 146.8 23.7C148.94 22.17 151.34 20.99 153.95 20.18C156.55 19.38 159.24 18.97 161.94 18.97H162.11L163.46 19.65L168.49 35.37C169.25 37.79 170.23 39.51 171.41 40.5C172.57 41.47 174.24 41.96 176.38 41.96H183.25C183.24 41.89 183.23 41.82 183.22 41.75C183.06 40.75 182.98 39.62 182.98 38.4V4.05999L188.48 3.26999H189.73V37.72C189.73 38.48 189.74 39.35 189.76 40.34C189.78 41.31 189.82 42.29 189.87 43.23C189.92 44.14 190.03 44.93 190.17 45.58L190.19 45.66V46.7L189.73 46.89C188.53 47.37 187.02 47.73 185.22 47.97C183.46 48.2 181.33 48.32 178.9 48.32H175.23C172.84 48.32 170.84 47.96 169.28 47.25C168.44 46.87 167.68 46.38 167.01 45.79L166.98 46.02L166.68 46.21C164.57 47.5 162.34 48.46 160.06 49.05C157.79 49.63 155.65 49.93 153.69 49.93Z" fill="#728040"/>
<path d="M199.27 48.32V4.04999L206.48 3.17999V4.54999L206.46 4.62999C206.32 5.27999 206.22 6.09999 206.16 7.08999C206.1 8.11999 206.06 9.16999 206.05 10.22C206.03 11.29 206.02 12.2 206.02 12.96V48.32H199.27Z" fill="#728040"/>
<path d="M228.67 63.23C227.67 63.23 226.66 63.19 225.69 63.11C224.72 63.03 223.61 62.91 222.39 62.76L221.74 62.68V61.47L223.1 56.31L223.81 56.5C224.5 56.68 225.31 56.84 226.22 56.97C227.12 57.1 228.1 57.16 229.12 57.16C230.64 57.16 232.2 57.03 233.76 56.77C234.7 56.61 235.62 56.37 236.51 56.04C236.98 55.13 237.42 54.12 237.8 53.04C238.34 51.5 238.78 49.61 239.11 47.41C239.45 45.2 239.62 42.48 239.62 39.32C239.62 36.27 239.51 33.39 239.31 30.78C239.1 28.17 238.84 25.6 238.54 23.13L238.45 22.41L244.27 21.62H245.43L245.51 22.27C245.81 24.71 246.04 27.28 246.17 29.89C246.3 32.5 246.37 35.6 246.37 39.1C246.37 43.14 246.03 46.7 245.35 49.67C244.66 52.68 243.59 55.21 242.17 57.21C240.72 59.24 238.84 60.77 236.59 61.76C234.36 62.73 231.7 63.23 228.67 63.23Z" fill="#728040"/>
<path d="M255.45 48.32V4.04999L262.66 3.17999V4.54999L262.64 4.62999C262.5 5.27999 262.4 6.09999 262.34 7.08999C262.28 8.11999 262.24 9.16999 262.23 10.22C262.21 11.29 262.2 12.2 262.2 12.96V48.32H255.45Z" fill="#728040"/>
<path d="M268.75 48.32V46.99L270.58 41.97H296.26C297.12 41.97 297.89 41.83 298.57 41.56C299.19 41.31 299.68 40.9 300.05 40.3C300.43 39.7 300.62 38.85 300.62 37.77C300.62 36.43 300.24 34.88 299.48 33.17C298.97 32.02 298.3 30.94 297.48 29.94C297.19 29.99 296.91 30.02 296.66 30.05C295.86 30.15 295.02 30.22 294.17 30.25C293.32 30.29 292.22 30.31 290.81 30.31H288.75C287.21 30.31 285.65 30.25 284.11 30.14C282.56 30.02 281.02 29.83 279.53 29.56C278.04 29.29 276.52 28.92 275 28.45L274.32 28.24L275.79 22.65H276.94L277.06 22.69C278.79 23.28 280.75 23.69 282.86 23.92C285 24.15 287.06 24.26 288.97 24.26H290.8C292.28 24.26 293.82 24.22 295.38 24.15C296.91 24.08 298.24 23.89 299.32 23.6L299.41 23.57H300.49L300.7 23.78C301.68 24.73 302.69 25.91 303.68 27.29C304.68 28.68 305.55 30.25 306.26 31.94C306.98 33.67 307.35 35.52 307.35 37.44C307.35 39.01 307.1 40.47 306.62 41.77C306.13 43.09 305.35 44.26 304.32 45.25C303.29 46.24 301.98 47.01 300.44 47.54C298.92 48.06 297.1 48.32 295.04 48.32H268.75Z" fill="#728040"/>
<path d="M52.96 88.1C55.35 88.1 56.95 86.49 56.95 84.14V84.1C56.95 81.75 55.34 80.11 52.96 80.11H50.71V88.1H52.96ZM47.8 77.47H52.97C57.14 77.47 60.01 80.33 60.01 84.06V84.1C60.01 87.83 57.13 90.73 52.97 90.73H47.8V77.47Z" fill="#BFC3A8"/>
<path d="M71.91 85.18L70.15 80.88L68.39 85.18H71.91ZM68.85 77.38H71.54L77.22 90.73H74.17L72.96 87.76H67.36L66.15 90.73H63.18L68.85 77.38Z" fill="#BFC3A8"/>
<path d="M87.78 83.91C89.2 83.91 90.01 83.15 90.01 82.04V82C90.01 80.75 89.14 80.11 87.72 80.11H84.82V83.92H87.78V83.91ZM81.91 77.47H87.97C89.66 77.47 90.96 77.94 91.83 78.81C92.57 79.55 92.97 80.59 92.97 81.84V81.88C92.97 84.02 91.81 85.36 90.13 85.99L93.37 90.72H89.96L87.12 86.48H84.83V90.72H81.91V77.47Z" fill="#BFC3A8"/>
<path d="M114.19 85.18L112.43 80.88L110.67 85.18H114.19ZM111.12 77.38H113.81L119.49 90.73H116.44L115.23 87.76H109.63L108.42 90.73H105.45L111.12 77.38Z" fill="#BFC3A8"/>
<path d="M124.18 77.47H127.1V88.08H133.7V90.73H124.18V77.47Z" fill="#BFC3A8"/>
<path d="M146.88 77.47H150.02L153.51 83.08L156.99 77.47H160.13V90.73H157.24V82.08L153.51 87.74H153.43L149.74 82.13V90.73H146.88V77.47Z" fill="#BFC3A8"/>
<path d="M173.57 85.18L171.81 80.88L170.05 85.18H173.57ZM170.5 77.38H173.19L178.87 90.73H175.82L174.61 87.76H169.01L167.8 90.73H164.83L170.5 77.38Z" fill="#BFC3A8"/>
<path d="M182.47 88.8L184.19 86.74C185.38 87.72 186.63 88.35 188.15 88.35C189.34 88.35 190.06 87.88 190.06 87.1V87.06C190.06 86.32 189.61 85.94 187.39 85.37C184.72 84.69 183 83.95 183 81.32V81.28C183 78.88 184.93 77.29 187.64 77.29C189.57 77.29 191.22 77.9 192.56 78.98L191.05 81.18C189.88 80.37 188.72 79.87 187.6 79.87C186.48 79.87 185.9 80.38 185.9 81.03V81.07C185.9 81.94 186.47 82.23 188.76 82.81C191.45 83.51 192.96 84.48 192.96 86.79V86.83C192.96 89.46 190.95 90.94 188.09 90.94C186.08 90.92 184.06 90.22 182.47 88.8Z" fill="#BFC3A8"/>
<path d="M198.14 77.47H201.06V82.72H206.44V77.47H209.35V90.73H206.44V85.41H201.06V90.73H198.14V77.47Z" fill="#BFC3A8"/>
<path d="M222.79 85.18L221.03 80.88L219.27 85.18H222.79ZM219.72 77.38H222.41L228.09 90.73H225.04L223.83 87.76H218.23L217.02 90.73H214.05L219.72 77.38Z" fill="#BFC3A8"/>
<path d="M232.79 77.47H242.78V80.07H235.68V82.76H241.93V85.35H235.68V88.13H242.88V90.73H232.79V77.47Z" fill="#BFC3A8"/>
<path d="M253.99 83.91C255.41 83.91 256.22 83.15 256.22 82.04V82C256.22 80.75 255.35 80.11 253.93 80.11H251.03V83.92H253.99V83.91ZM248.12 77.47H254.18C255.87 77.47 257.17 77.94 258.04 78.81C258.78 79.55 259.18 80.59 259.18 81.84V81.88C259.18 84.02 258.03 85.36 256.34 85.99L259.58 90.72H256.17L253.33 86.48H251.04V90.72H248.12V77.47Z" fill="#BFC3A8"/>
</svg>
