<svg width="186" height="55" viewBox="0 0 186 55" fill="none" xmlns="http://www.w3.org/2000/svg">
<path d="M4.66892 38.2084C4.07032 38.2084 3.45899 38.1829 2.87312 38.132C2.28726 38.081 1.62498 38.0173 0.886277 37.9282L0.491455 37.89V37.164L1.30657 34.0564L1.7396 34.171C2.15989 34.2856 2.64387 34.3748 3.19153 34.4512C3.72645 34.5276 4.32505 34.5658 4.93638 34.5658C5.85339 34.5658 6.78313 34.4894 7.72561 34.3238C8.286 34.2347 8.84639 34.0818 9.38131 33.8908C9.66151 33.3431 9.92897 32.7318 10.1582 32.0823C10.4766 31.1525 10.7441 30.019 10.9479 28.6944C11.1516 27.3699 11.2535 25.7269 11.2535 23.8292C11.2535 21.9952 11.1898 20.2631 11.0625 18.6838C10.9351 17.1045 10.7823 15.5634 10.604 14.0733L10.553 13.6275L14.0555 13.1436H14.756L14.8069 13.5384C14.9852 15.0158 15.1253 16.5569 15.2017 18.1234C15.2782 19.69 15.3291 21.5622 15.3291 23.6764C15.3291 24.2495 15.3164 24.8354 15.2909 25.4085H23.735C23.5567 25.1665 23.4038 24.9118 23.2637 24.6316C22.9071 23.9311 22.7288 23.0523 22.7288 22.0207C22.7288 20.9891 22.9581 19.9702 23.4038 18.9513C23.8496 17.9578 24.5119 16.9517 25.3907 15.9455C26.2568 14.9521 27.3393 13.9205 28.6002 12.8761C29.8611 11.8317 31.3385 10.7492 33.0069 9.64111L33.1216 9.5647H33.822L35.1848 12.787L34.8919 12.9907C32.7649 14.4809 31.0838 15.7545 29.8738 16.8116C28.6894 17.8432 27.836 18.7857 27.3648 19.6135C26.9063 20.4159 26.6643 21.2438 26.6643 22.0844C26.6643 23.0778 27.0591 23.842 27.887 24.4533C28.7403 25.0774 29.7592 25.3958 30.9182 25.3958H39.0948V26.1982L37.9995 29.2294H14.8833C14.8324 29.5223 14.7815 29.7898 14.7178 30.0445C14.2975 31.853 13.6607 33.3814 12.7946 34.5913C11.9158 35.814 10.795 36.731 9.43225 37.3296C8.09496 37.9154 6.4902 38.2084 4.66892 38.2084Z" fill="white"/>
<path d="M69.9418 9.2463C69.2923 9.2463 68.7446 9.02979 68.2989 8.60949C67.8531 8.17646 67.6239 7.61607 67.6239 6.94105C67.6239 6.26603 67.8531 5.70564 68.2989 5.27261C68.7446 4.85232 69.2923 4.6358 69.9418 4.6358C70.5914 4.6358 71.139 4.85232 71.5848 5.27261C72.0306 5.70564 72.2598 6.26603 72.2598 6.94105C72.2598 7.61607 72.0306 8.17646 71.5848 8.60949C71.1263 9.02979 70.5786 9.2463 69.9418 9.2463Z" fill="white"/>
<path d="M66.5158 4.75042C65.8663 4.75042 65.3186 4.53391 64.8729 4.11361C64.4271 3.68058 64.1978 3.12019 64.1978 2.44517C64.1978 1.77015 64.4271 1.20976 64.8729 0.776732C65.3186 0.356438 65.8663 0.139923 66.5158 0.139923C67.1654 0.139923 67.713 0.356438 68.1588 0.776732C68.6046 1.20976 68.8338 1.77015 68.8338 2.44517C68.8338 3.12019 68.6046 3.68058 68.1588 4.11361C67.713 4.53391 67.1526 4.75042 66.5158 4.75042Z" fill="white"/>
<path d="M64.1596 9.79394C63.5101 9.79394 62.9624 9.57742 62.5167 9.15713C62.0709 8.7241 61.8416 8.16371 61.8416 7.48869C61.8416 6.81367 62.0709 6.25328 62.5167 5.82025C62.9624 5.39996 63.5101 5.18344 64.1596 5.18344C64.8092 5.18344 65.3568 5.39996 65.8026 5.82025C66.2484 6.25328 66.4776 6.81367 66.4776 7.48869C66.4776 8.16371 66.2484 8.7241 65.8026 9.15713C65.3568 9.57742 64.8092 9.79394 64.1596 9.79394Z" fill="white"/>
<path d="M95.9874 15.7163C95.0321 15.8691 94.1788 16.0984 93.4529 16.3913C92.2811 16.8753 91.3259 17.4611 90.6127 18.1107C89.9122 18.773 89.4155 19.4607 89.1098 20.1739C88.8169 20.8872 88.6641 21.5494 88.6641 22.1608C88.6641 23.1415 88.8933 23.9438 89.3518 24.5552C89.823 25.1793 90.4216 25.6378 91.1603 25.9307C91.9245 26.2364 92.7142 26.3892 93.5293 26.3892C94.9685 26.3892 96.3185 26.1599 97.5666 25.6887C98.1652 25.4722 98.7129 25.2302 99.2096 25.001C98.9804 24.5042 98.7638 23.9693 98.5728 23.3835L95.9874 15.7163ZM93.0708 30.1973C92.3066 30.1973 91.517 30.0954 90.7273 29.9044C90.0905 29.7515 89.4664 29.5223 88.8551 29.2294H42.8902V2.57254L47.2333 2.05035V2.87821V2.91641C47.1441 3.2985 47.0804 3.80795 47.0549 4.39381C47.0167 5.01788 47.004 5.64196 46.9913 6.27877C46.9785 6.91558 46.9785 7.47597 46.9785 7.93447V25.4085H55.6264C55.6264 25.1283 55.6137 24.8226 55.6137 24.5042V13.7549L58.9251 13.2837H59.6765V25.4085H65.013C65.0002 25.0901 65.0002 24.7972 65.0002 24.5042V12.5195L68.3116 12.0483H69.0631V25.4085H74.5142C74.5014 25.3194 74.4887 25.2302 74.4887 25.141C74.425 24.5552 74.3995 23.9311 74.3995 23.2688V11.4242L77.7109 10.9529H78.4624V25.4212H85.1616C85.1489 25.383 85.1361 25.3576 85.1234 25.3194C84.7922 24.4788 84.6267 23.5108 84.6267 22.441C84.6267 20.7343 85.0215 19.1805 85.8111 17.8305C86.5881 16.4932 87.6452 15.3469 88.9442 14.4172C90.2306 13.5002 91.6825 12.787 93.2491 12.303C94.8156 11.819 96.4331 11.577 98.0634 11.577H98.1652L98.9804 11.9846L102.012 21.4476C102.47 22.8995 103.056 23.9438 103.769 24.5424C104.47 25.1283 105.476 25.4212 106.762 25.4212H110.901C110.889 25.383 110.889 25.3321 110.876 25.2939C110.787 24.6953 110.736 24.0075 110.736 23.2688V2.57254L114.047 2.1013H114.799V22.8485C114.799 23.307 114.799 23.8292 114.811 24.4278C114.824 25.0137 114.85 25.5996 114.875 26.1727C114.913 26.7203 114.964 27.2043 115.053 27.5864L115.066 27.6373V28.2614L114.786 28.376C114.06 28.669 113.156 28.8855 112.073 29.0256C111.016 29.1657 109.73 29.2421 108.265 29.2421H106.049C104.61 29.2421 103.4 29.0256 102.457 28.5926C101.948 28.3633 101.489 28.0704 101.082 27.7138L101.069 27.8539L100.891 27.9685C99.6172 28.7454 98.2799 29.3185 96.9044 29.6751C95.5416 30.019 94.2552 30.1973 93.0708 30.1973Z" fill="white"/>
<path d="M120.53 29.2421V2.57254L124.873 2.05035V2.87821L124.86 2.91641C124.771 3.31124 124.707 3.80795 124.682 4.39381C124.644 5.01788 124.618 5.64196 124.618 6.27877C124.606 6.91558 124.606 7.47597 124.606 7.93447V29.2421H120.53Z" fill="white"/>
<path d="M138.233 38.2084C137.635 38.2084 137.023 38.1829 136.437 38.1319C135.852 38.081 135.189 38.0173 134.451 37.9282L134.056 37.8772V37.1513L134.871 34.0436L135.304 34.1583C135.724 34.2729 136.208 34.362 136.756 34.4385C137.304 34.5149 137.889 34.5531 138.501 34.5531C139.418 34.5531 140.347 34.4767 141.29 34.3111C141.85 34.2219 142.411 34.0691 142.946 33.8781C143.226 33.3304 143.493 32.7191 143.723 32.0695C144.041 31.1398 144.308 30.0063 144.512 28.6817C144.716 27.3571 144.818 25.7142 144.818 23.8165C144.818 21.9825 144.754 20.2503 144.627 18.6711C144.499 17.1045 144.347 15.5507 144.168 14.0606L144.117 13.6275L147.62 13.1436H148.32L148.371 13.5384C148.55 15.0158 148.69 16.5569 148.766 18.1234C148.843 19.7027 148.893 21.5622 148.893 23.6764C148.893 26.109 148.69 28.2614 148.282 30.0445C147.862 31.853 147.225 33.3813 146.359 34.5913C145.48 35.814 144.359 36.731 142.997 37.3296C141.659 37.9154 140.055 38.2084 138.233 38.2084Z" fill="white"/>
<path d="M154.37 29.2421V2.57254L158.713 2.05035V2.87821L158.7 2.92915C158.611 3.32397 158.547 3.82068 158.522 4.40655C158.484 5.03062 158.458 5.65469 158.458 6.2915C158.446 6.92831 158.446 7.4887 158.446 7.94721V29.2548H154.37V29.2421Z" fill="white"/>
<path d="M162.381 29.2421V28.4397L163.476 25.4085H178.951C179.473 25.4085 179.932 25.3321 180.339 25.1665C180.708 25.0137 181.001 24.7717 181.231 24.4151C181.46 24.0457 181.574 23.5363 181.574 22.8867C181.574 22.0844 181.345 21.1419 180.887 20.1102C180.581 19.4225 180.174 18.7602 179.677 18.1616C179.498 18.1871 179.333 18.2126 179.18 18.2253C178.696 18.289 178.187 18.3272 177.677 18.3527C177.168 18.3781 176.505 18.3909 175.652 18.3909H174.404C173.474 18.3909 172.532 18.3527 171.602 18.289C170.672 18.2126 169.743 18.0979 168.851 17.9324C167.96 17.7668 167.043 17.5503 166.125 17.2701L165.718 17.1427L166.609 13.7804H167.297L167.361 13.8058C168.405 14.1625 169.577 14.4044 170.851 14.5445C172.137 14.6846 173.385 14.7483 174.531 14.7483H175.639C176.531 14.7483 177.461 14.7228 178.403 14.6846C179.32 14.6464 180.123 14.5318 180.785 14.3535L180.836 14.3408H181.485L181.613 14.4681C182.211 15.0412 182.81 15.7545 183.408 16.5823C184.007 17.4229 184.529 18.3654 184.962 19.3843C185.395 20.4287 185.612 21.5367 185.612 22.6957C185.612 23.6382 185.459 24.517 185.166 25.3066C184.873 26.0963 184.402 26.8095 183.778 27.4081C183.154 28.0067 182.377 28.4652 181.434 28.7836C180.517 29.102 179.422 29.2548 178.187 29.2548H162.381V29.2421Z" fill="white"/>
<path d="M32.3956 53.1989C33.8348 53.1989 34.8027 52.2309 34.8027 50.8172V50.7917C34.8027 49.378 33.8348 48.3846 32.3956 48.3846H31.0328V53.1989H32.3956ZM29.288 46.7926H32.3956C34.9046 46.7926 36.6367 48.512 36.6367 50.7663V50.7917C36.6367 53.0333 34.9046 54.7782 32.3956 54.7782H29.288V46.7926Z" fill="white"/>
<path d="M43.8072 51.4413L42.7501 48.8558L41.693 51.4413H43.8072ZM41.9605 46.7416H43.578L47.004 54.7781H45.17L44.444 52.9823H41.0689L40.343 54.7781H38.5472L41.9605 46.7416Z" fill="white"/>
<path d="M53.3721 50.6771C54.2254 50.6771 54.7221 50.2186 54.7221 49.5436V49.5181C54.7221 48.7667 54.1999 48.3719 53.3466 48.3719H51.6017V50.6644H53.3721V50.6771ZM49.8314 46.7926H53.4867C54.5056 46.7926 55.2825 47.0728 55.8174 47.6077C56.2632 48.0535 56.5052 48.6775 56.5052 49.429V49.4544C56.5052 50.7408 55.8047 51.5559 54.7985 51.9253L56.7472 54.7782H54.6966L52.99 52.2182H51.6145V54.7782H49.8569V46.7926H49.8314Z" fill="white"/>
<path d="M69.2796 51.4413L68.2225 48.8558L67.1654 51.4413H69.2796ZM67.4201 46.7416H69.0376L72.4636 54.7781H70.6296L69.9036 52.9823H66.5286L65.8026 54.7781H64.0068L67.4201 46.7416Z" fill="white"/>
<path d="M75.291 46.7926H77.0486V53.1861H81.0351V54.7782H75.291V46.7926Z" fill="white"/>
<path d="M88.9697 46.7926H90.8547L92.9561 50.1677L95.0576 46.7926H96.9553V54.7782H95.2104V49.5691L92.9561 52.9824H92.9179L90.6891 49.6073V54.7782H88.9697V46.7926Z" fill="white"/>
<path d="M105.043 51.4413L103.986 48.8558L102.929 51.4413H105.043ZM103.196 46.7416H104.814L108.24 54.7781H106.406L105.68 52.9823H102.304L101.579 54.7781H99.7827L103.196 46.7416Z" fill="white"/>
<path d="M110.405 53.6191L111.436 52.371C112.15 52.9696 112.901 53.339 113.818 53.339C114.531 53.339 114.964 53.0588 114.964 52.5875V52.562C114.964 52.1163 114.684 51.887 113.36 51.5432C111.755 51.1356 110.71 50.6898 110.71 49.0978V49.0723C110.71 47.6204 111.869 46.6652 113.5 46.6652C114.659 46.6652 115.652 47.0345 116.467 47.6841L115.55 49.0086C114.837 48.5119 114.149 48.219 113.474 48.219C112.799 48.219 112.442 48.5247 112.442 48.9195V48.945C112.442 49.4672 112.786 49.6455 114.162 49.9893C115.779 50.4096 116.696 50.9955 116.696 52.3837V52.4092C116.696 53.9885 115.486 54.88 113.767 54.88C112.583 54.8928 111.36 54.4725 110.405 53.6191Z" fill="white"/>
<path d="M119.842 46.7926H121.6V49.9511H124.848V46.7926H126.592V54.7782H124.848V51.5814H121.6V54.7782H119.842V46.7926Z" fill="white"/>
<path d="M134.693 51.4413L133.635 48.8558L132.578 51.4413H134.693ZM132.846 46.7416H134.463L137.889 54.7781H136.055L135.329 52.9823H131.954L131.228 54.7781H129.433L132.846 46.7416Z" fill="white"/>
<path d="M140.717 46.7926H146.741V48.3591H142.462V49.9766H146.219V51.5432H142.462V53.2243H146.792V54.7782H140.717V46.7926Z" fill="white"/>
<path d="M153.491 50.6771C154.345 50.6771 154.841 50.2186 154.841 49.5436V49.5181C154.841 48.7667 154.319 48.3719 153.466 48.3719H151.721V50.6644H153.491V50.6771ZM149.951 46.7926H153.606C154.625 46.7926 155.402 47.0728 155.937 47.6077C156.382 48.0535 156.624 48.6775 156.624 49.429V49.4544C156.624 50.7408 155.924 51.5559 154.918 51.9253L156.866 54.7782H154.816L153.109 52.2182H151.734V54.7782H149.976V46.7926H149.951Z" fill="white"/>
</svg>
