<svg width="189" height="193" viewBox="0 0 189 193" fill="none" xmlns="http://www.w3.org/2000/svg">
<path d="M1.32 0.990234C1.15 1.52023 0.830002 2.05023 0.830002 2.58023C0.810002 27.8702 0.809998 53.1602 0.809998 78.4602C0.809998 79.8202 1.19 80.2002 2.56 80.2102C5.47 80.2202 8.39 80.2102 11.3 80.2102C11.61 80.2102 11.92 80.2102 12.33 80.2102C12.33 81.5702 12.33 82.8302 12.33 84.1002C12.33 85.3102 12.32 86.5202 12.33 87.7302C12.34 89.1502 12.64 89.4402 14.08 89.4402C28.87 89.4402 43.67 89.4402 58.46 89.4402C59.21 89.4402 59.96 89.4502 60.71 89.4402C61.72 89.4202 62.11 89.0402 62.17 88.0302C62.18 87.8002 62.17 87.5702 62.17 87.3402C62.17 62.3102 62.17 37.2702 62.17 12.2402C62.17 12.0102 62.18 11.7802 62.17 11.5502C62.11 10.5502 61.71 10.1602 60.7 10.1602C57.7 10.1502 54.7 10.1602 51.7 10.1602C51.39 10.1602 51.08 10.1602 50.64 10.1602C50.64 9.63023 50.64 9.18022 50.64 8.73022C50.64 6.68022 50.67 4.63023 50.62 2.59023C50.6 2.06023 50.3 1.54022 50.12 1.01022C33.86 0.990223 17.59 0.990234 1.32 0.990234ZM59.75 12.5502C59.75 37.3902 59.75 62.1702 59.75 86.9802C44.72 86.9802 29.75 86.9802 14.75 86.9802C14.75 62.1402 14.75 37.3602 14.75 12.5502C29.78 12.5502 44.76 12.5502 59.75 12.5502ZM48.27 3.26022C48.27 5.55022 48.27 7.81022 48.27 10.1502C47.87 10.1502 47.53 10.1502 47.18 10.1502C36.28 10.1502 25.38 10.1502 14.48 10.1502C14.19 10.1502 13.9 10.1502 13.61 10.1502C12.81 10.1702 12.4 10.6002 12.34 11.3802C12.32 11.7202 12.32 12.0702 12.32 12.4202C12.32 33.7902 12.32 55.1602 12.32 76.5302C12.32 76.9302 12.32 77.3202 12.32 77.7602C9.23 77.7602 6.25 77.7602 3.25 77.7602C3.25 52.9002 3.25 28.0902 3.25 3.26022C18.29 3.26022 33.25 3.26022 48.27 3.26022Z" fill="white"/>
<path d="M28.06 61.0404C30.68 61.0404 33.31 61.0504 35.93 61.0404C37.08 61.0404 37.48 60.6405 37.48 59.4705C37.49 54.1905 37.49 48.9205 37.48 43.6404C37.48 42.4504 37.07 42.0304 35.86 42.0304C30.61 42.0204 25.36 42.0204 20.12 42.0304C18.88 42.0304 18.48 42.4405 18.48 43.7105C18.48 48.9305 18.48 54.1504 18.48 59.3704C18.48 60.6804 18.86 61.0404 20.2 61.0404C22.81 61.0404 25.44 61.0404 28.06 61.0404ZM35.05 58.6005C30.28 58.6005 25.6 58.6005 20.9 58.6005C20.9 53.8505 20.9 49.1704 20.9 44.4504C25.63 44.4504 30.32 44.4504 35.05 44.4504C35.05 49.1804 35.05 53.8605 35.05 58.6005Z" fill="white"/>
<path d="M56.01 27.9303C56.01 25.2803 56.02 22.6203 56.01 19.9703C56.01 18.8003 55.64 18.4203 54.45 18.4103C49.14 18.4003 43.84 18.4003 38.53 18.4103C37.39 18.4103 37 18.8303 36.99 20.0103C36.98 25.2903 36.98 30.5603 36.99 35.8403C36.99 36.9803 37.41 37.4103 38.56 37.4103C43.84 37.4203 49.11 37.4203 54.39 37.4103C55.62 37.4103 55.99 37.0203 55.99 35.8003C56.02 33.1803 56.01 30.5603 56.01 27.9303ZM53.58 20.8103C53.58 25.6003 53.58 30.2803 53.58 35.0103C48.84 35.0103 44.16 35.0103 39.45 35.0103C39.45 30.2503 39.45 25.5403 39.45 20.8103C44.18 20.8103 48.84 20.8103 53.58 20.8103Z" fill="white"/>
<path d="M37.32 73.1501C42.88 73.1501 48.45 73.1501 54.01 73.1501C54.3 73.1501 54.59 73.1601 54.87 73.1401C55.54 73.0801 55.94 72.7001 55.98 72.0401C56.02 71.3701 55.63 70.9601 54.97 70.8501C54.72 70.8001 54.46 70.7901 54.2 70.7901C42.9 70.7901 31.6 70.7901 20.3 70.7901C20.16 70.7901 20.01 70.7801 19.87 70.7901C18.99 70.8501 18.46 71.3201 18.48 72.0201C18.5 72.7001 19.05 73.1501 19.94 73.1601C25.47 73.1701 31.01 73.1601 36.54 73.1601C36.8 73.1501 37.06 73.1501 37.32 73.1501Z" fill="white"/>
<path d="M37.22 68.1103C42.81 68.1103 48.4 68.1103 54 68.1103C54.26 68.1103 54.52 68.1304 54.78 68.1004C55.5 68.0204 55.99 67.6703 55.99 66.9003C55.98 66.1703 55.5 65.8304 54.83 65.7404C54.57 65.7104 54.31 65.7203 54.05 65.7203C42.84 65.7203 31.62 65.7203 20.41 65.7203C19.09 65.7203 18.48 66.1103 18.49 66.9303C18.51 67.7403 19.1 68.1004 20.45 68.1004C26.04 68.1104 31.63 68.1103 37.22 68.1103Z" fill="white"/>
<path d="M45.58 78.3504C48.46 78.3504 51.34 78.3504 54.22 78.3504C54.51 78.3504 54.88 78.4404 55.06 78.3004C55.43 78.0104 55.89 77.6004 55.93 77.2004C55.97 76.8604 55.53 76.3904 55.18 76.1204C54.95 75.9404 54.52 75.9904 54.18 75.9904C48.45 75.9804 42.72 75.9804 36.99 75.9904C35.72 75.9904 35.13 76.3604 35.11 77.1604C35.09 77.9604 35.69 78.3604 36.93 78.3604C39.83 78.3504 42.7 78.3504 45.58 78.3504Z" fill="white"/>
<path d="M47.89 49.6004C50.08 49.6004 52.27 49.6104 54.46 49.6004C55.43 49.6004 55.97 49.1804 55.99 48.4504C56.01 47.6904 55.45 47.2204 54.44 47.2204C50.06 47.2104 45.67 47.2104 41.29 47.2204C40.32 47.2204 39.78 47.6604 39.75 48.3804C39.73 49.1304 40.31 49.5904 41.31 49.6004C43.51 49.6104 45.7 49.6004 47.89 49.6004Z" fill="white"/>
<path d="M26.61 25.9604C28.71 25.9604 30.82 25.9604 32.92 25.9604C33.24 25.9604 33.63 26.0304 33.85 25.8804C34.2 25.6204 34.67 25.1904 34.66 24.8404C34.64 24.4404 34.22 23.9904 33.86 23.7104C33.63 23.5404 33.19 23.6204 32.85 23.6204C28.7 23.6204 24.55 23.6204 20.4 23.6204C20.2 23.6204 20 23.6104 19.79 23.6304C18.99 23.6804 18.44 24.1704 18.5 24.8304C18.57 25.5804 19.04 25.9504 19.78 25.9604C22.05 25.9604 24.33 25.9504 26.61 25.9604Z" fill="white"/>
<path d="M51.21 54.8C52.33 54.8 53.46 54.81 54.58 54.8C55.47 54.79 55.99 54.3401 55.99 53.6301C55.99 52.9201 55.47 52.44 54.59 52.43C52.34 52.41 50.09 52.41 47.85 52.43C46.91 52.44 46.36 52.9301 46.38 53.6601C46.41 54.3601 46.94 54.79 47.83 54.8C48.96 54.81 50.09 54.8 51.21 54.8Z" fill="white"/>
<path d="M29.88 28.82C28.76 28.82 27.63 28.81 26.51 28.82C25.63 28.83 25.1 29.3 25.11 30C25.12 30.67 25.63 31.14 26.46 31.15C28.76 31.17 31.07 31.17 33.37 31.15C34.24 31.14 34.7 30.71 34.71 30.01C34.72 29.28 34.24 28.84 33.33 28.83C32.19 28.8 31.04 28.82 29.88 28.82Z" fill="white"/>
<path d="M44.04 44.4104C45.02 44.4104 46 44.4304 46.97 44.4104C47.83 44.3904 48.37 43.8904 48.35 43.2004C48.33 42.5304 47.82 42.0504 46.99 42.0404C45.03 42.0204 43.08 42.0204 41.12 42.0404C40.26 42.0504 39.72 42.5604 39.74 43.2604C39.76 43.9504 40.3 44.4004 41.18 44.4204C42.14 44.4204 43.09 44.4104 44.04 44.4104Z" fill="white"/>
<path d="M22.78 20.7603C23.76 20.7603 24.73 20.7803 25.71 20.7503C26.53 20.7303 27.05 20.2603 27.06 19.6003C27.07 18.9403 26.55 18.4303 25.74 18.4203C23.76 18.4003 21.77 18.4003 19.79 18.4203C18.94 18.4303 18.47 18.8803 18.46 19.5703C18.45 20.2803 18.95 20.7303 19.85 20.7503C20.83 20.7803 21.8 20.7603 22.78 20.7603Z" fill="white"/>
<path d="M53.08 44.4102C53.63 44.4102 54.17 44.4302 54.72 44.4002C55.45 44.3702 55.95 44.0202 55.98 43.2602C56.01 42.4902 55.51 42.0802 54.8 42.0502C53.62 42.0002 52.44 42.0002 51.26 42.0502C50.54 42.0802 50.06 42.4902 50.09 43.2702C50.12 44.0502 50.63 44.3702 51.35 44.4002C51.93 44.4302 52.51 44.4102 53.08 44.4102Z" fill="white"/>
<path d="M31.76 20.7402C32.39 20.7402 33.03 20.7802 33.66 20.7302C34.33 20.6802 34.71 20.2702 34.72 19.6002C34.72 18.9302 34.34 18.4902 33.67 18.4602C32.41 18.4202 31.14 18.4202 29.88 18.4602C29.21 18.4802 28.83 18.9202 28.83 19.5902C28.83 20.2602 29.19 20.6902 29.87 20.7302C30.49 20.7702 31.13 20.7402 31.76 20.7402Z" fill="white"/>
<path d="M92.95 135.78C92.95 133.09 92.95 131.34 92.95 129.59C92.95 100.4 92.98 71.2203 92.93 42.0303C92.92 37.0603 94.76 33.2803 99.38 31.2903C103.54 29.4903 108.09 29.7603 110.78 33.2703C112.89 36.0103 114.17 40.1103 114.2 43.6203C114.46 72.3103 114.35 101 114.35 129.69C114.35 131.43 114.35 133.17 114.35 136.3C124.21 126.73 132.93 118.15 141.8 109.72C146.48 105.28 151.47 105.54 155.71 110.1C159.21 113.86 159.46 118.43 155.76 122.05C140.36 137.13 124.87 152.13 109.29 167.02C105.69 170.46 100.84 170.01 96.87 166.12C81.95 151.49 67.08 136.82 52.28 122.07C48.05 117.85 48.17 113.57 52.19 109.47C56.37 105.21 61.14 104.84 65.33 108.87C73.22 116.45 80.92 124.24 88.71 131.92C89.84 133.03 91.06 134.06 92.95 135.78Z" fill="white"/>
<path d="M172.72 132.12C178.19 132.12 183.08 132.12 188.24 132.12C188.24 143.84 189.35 155.51 187.97 166.87C186.15 181.88 173.17 192.35 157.69 192.45C121.9 192.69 86.1 192.76 50.31 192.43C32.54 192.26 19.57 178.5 19.42 160.78C19.34 151.36 19.41 141.95 19.41 132.2C24.76 132.2 29.78 132.2 35.34 132.2C35.34 141.43 35.33 150.49 35.34 159.56C35.36 170.75 41.32 176.9 52.38 176.91C86.85 176.95 121.32 176.95 155.79 176.91C166.65 176.9 172.67 170.83 172.73 160.03C172.76 150.94 172.72 141.85 172.72 132.12Z" fill="white"/>
</svg>
