<svg width="71" height="71" viewBox="0 0 71 71" fill="none" xmlns="http://www.w3.org/2000/svg">
<path d="M35.17 70.34C54.5939 70.34 70.34 54.5939 70.34 35.17C70.34 15.7461 54.5939 0 35.17 0C15.7461 0 0 15.7461 0 35.17C0 54.5939 15.7461 70.34 35.17 70.34Z" fill="#41392F"/>
<path d="M25.8 59.13H44.53C48.36 59.13 51.47 56.02 51.47 52.19V22.23C51.47 18.4 48.36 15.29 44.53 15.29H25.8C21.97 15.29 18.86 18.4 18.86 22.23V52.2C18.86 56.03 21.97 59.13 25.8 59.13Z" fill="white"/>
<path d="M43.77 58.45H26.57C22.65 58.45 19.46 55.26 19.46 51.34V23.08C19.46 19.16 22.65 15.97 26.57 15.97H43.77C47.69 15.97 50.88 19.16 50.88 23.08V51.35C50.88 55.27 47.69 58.45 43.77 58.45ZM26.57 16.92C23.18 16.92 20.42 19.68 20.42 23.07V51.34C20.42 54.73 23.18 57.49 26.57 57.49H43.77C47.16 57.49 49.92 54.73 49.92 51.34V23.08C49.92 19.69 47.16 16.93 43.77 16.93H26.57V16.92Z" fill="#728040"/>
<path d="M47.02 32.57H22.89V33.55H47.02V32.57Z" fill="#728040"/>
<path d="M47.02 24.93H22.89V25.91H47.02V24.93Z" fill="#728040"/>
<path d="M47.02 40.18H22.89V41.16H47.02V40.18Z" fill="#728040"/>
<path d="M47.02 47.79H22.89V48.77H47.02V47.79Z" fill="#728040"/>
</svg>
