<svg width="273" height="273" viewBox="0 0 273 273" fill="none" xmlns="http://www.w3.org/2000/svg">
<path d="M136.69 271.71C211.364 271.71 271.9 211.174 271.9 136.5C271.9 61.8256 211.364 1.29004 136.69 1.29004C62.0156 1.29004 1.47998 61.8256 1.47998 136.5C1.47998 211.174 62.0156 271.71 136.69 271.71Z" stroke="#41392F" stroke-miterlimit="10"/>
<path d="M136.69 261.5C205.726 261.5 261.69 205.536 261.69 136.5C261.69 67.4644 205.726 11.5 136.69 11.5C67.6544 11.5 11.69 67.4644 11.69 136.5C11.69 205.536 67.6544 261.5 136.69 261.5Z" fill="#728040"/>
<path d="M71.61 135.98C71.61 127.06 71.57 118.14 71.63 109.22C71.67 102.79 74.86 99.4799 80.88 99.4099C87.32 99.3299 90.58 102.46 90.61 109.24C90.7 127.42 90.7 145.6 90.61 163.78C90.58 170.54 87.32 173.66 80.87 173.57C74.85 173.49 71.67 170.19 71.63 163.76C71.56 154.5 71.61 145.24 71.61 135.98Z" fill="#41392F"/>
<path d="M201.5 136.53C201.5 145.62 201.56 154.71 201.48 163.8C201.43 170.21 198.2 173.53 192.2 173.59C185.79 173.66 182.48 170.49 182.45 163.75C182.36 145.57 182.37 127.39 182.47 109.21C182.51 102.51 185.87 99.3199 192.26 99.3999C198.24 99.4799 201.43 102.8 201.48 109.26C201.55 118.35 201.5 127.44 201.5 136.53Z" fill="#41392F"/>
<path d="M93.48 141.88C93.48 138.11 93.48 134.73 93.48 131.01C122.25 131.01 150.8 131.01 179.6 131.01C179.6 134.69 179.6 138.07 179.6 141.88C151.02 141.88 122.49 141.88 93.48 141.88Z" fill="#41392F"/>
<path d="M216.38 136.52C216.38 143.73 216.36 150.93 216.39 158.14C216.41 162.57 214.68 165.45 209.87 165.59C205.52 165.72 203.2 163.37 203.16 158.37C203.06 143.79 203.06 129.21 203.16 114.62C203.19 109.66 205.58 107.28 209.9 107.42C214.71 107.58 216.4 110.49 216.38 114.91C216.36 122.11 216.38 129.31 216.38 136.52Z" fill="#41392F"/>
<path d="M69.97 136.63C69.97 143.66 70.04 150.7 69.95 157.73C69.88 163.23 67.8 165.58 63.33 165.59C58.84 165.6 56.77 163.26 56.75 157.72C56.69 143.48 56.76 129.24 56.72 115C56.71 110.62 58.22 107.61 63.07 107.4C67.55 107.21 69.85 109.65 69.94 115C70.06 122.22 69.97 129.43 69.97 136.63Z" fill="#41392F"/>
<path d="M55.26 137.19C54.99 138.52 55 140.75 54.04 142.41C53.27 143.73 51.3 145.08 49.85 145.08C48.4 145.08 45.98 143.67 45.69 142.47C44.92 139.24 44.45 135.67 45.07 132.48C45.43 130.65 48.15 128.07 49.83 128.06C51.49 128.05 53.4 130.67 54.73 132.48C55.41 133.43 55.07 135.12 55.26 137.19Z" fill="#41392F"/>
<path d="M217.91 136.61C218.05 135.12 217.71 133.27 218.46 132.15C219.62 130.41 221.68 127.86 223.07 128.03C224.94 128.26 227.41 130.47 228.01 132.34C228.85 134.95 228.76 138.21 227.97 140.86C227.45 142.62 224.85 145.12 223.46 144.95C221.6 144.72 219.76 142.43 218.4 140.66C217.7 139.74 218.04 138.02 217.91 136.61Z" fill="#41392F"/>
</svg>
