<svg width="272" height="273" viewBox="0 0 272 273" fill="none" xmlns="http://www.w3.org/2000/svg">
<path d="M135.71 271.71C210.384 271.71 270.92 211.174 270.92 136.5C270.92 61.8256 210.384 1.29004 135.71 1.29004C61.0356 1.29004 0.5 61.8256 0.5 136.5C0.5 211.174 61.0356 271.71 135.71 271.71Z" stroke="#41392F" stroke-miterlimit="10"/>
<path d="M135.71 261.5C204.746 261.5 260.71 205.536 260.71 136.5C260.71 67.4644 204.746 11.5 135.71 11.5C66.6744 11.5 10.71 67.4644 10.71 136.5C10.71 205.536 66.6744 261.5 135.71 261.5Z" fill="#728040"/>
<path d="M56.45 93.7601C57.67 92.3401 58.72 90.7201 60.14 89.5501C66.98 83.9001 73.91 78.3601 80.81 72.8001C83.79 70.4001 85.49 70.4101 88.48 72.8201C95.62 78.5801 102.73 84.3901 109.92 90.1001C111.95 91.7101 113.08 93.6101 112.78 96.2101C112.64 97.4401 113.15 98.1601 114.12 98.8801C121.12 104.07 128.09 109.3 135.02 114.58C136.1 115.4 137.03 115.67 138.36 115.26C141.21 114.39 144.12 113.68 147.02 112.97C148.13 112.7 148.92 112.19 149.6 111.24C155.02 103.77 160.5 96.3401 165.93 88.8801C167.13 87.2301 168.63 86.3101 170.69 86.7301C173.71 87.3501 175.03 90.7801 173.24 93.4301C171.89 95.4401 170.4 97.3601 168.97 99.3101C164.83 104.97 160.7 110.64 156.52 116.27C155.93 117.06 155.83 117.74 156.07 118.67C157.38 123.76 158.62 128.86 159.89 133.96C160 134.4 160.16 134.83 160.35 135.45C162.64 134.47 164.85 133.52 167.06 132.58C168.99 131.76 170.98 131.6 172.58 133.06C173.51 133.9 174.36 135.16 174.62 136.37C176.57 145.43 178.38 154.53 180.16 163.62C180.38 164.73 180.19 165.91 180.19 167.06C179.96 167.15 179.74 167.24 179.51 167.33C177.41 165.18 175.21 163.12 173.23 160.87C171.4 158.78 169.76 156.51 168.15 154.25C167.67 153.58 167.46 152.67 167.27 151.83C166.74 149.43 166.28 147.01 165.76 144.45C164.67 144.89 163.74 145.28 162.67 145.71C162.27 145.09 161.85 144.46 161.45 143.82C155.06 133.45 145.89 126.64 134.38 122.95C131.5 122.02 128.87 120.86 126.48 118.96C122.53 115.81 118.42 112.86 114.38 109.83C113.94 109.5 113.48 109.2 112.88 108.77C112.88 114.05 112.88 119.12 112.88 124.26C115.74 124.51 118.62 124.63 121.45 125.04C133.67 126.8 144.65 131.2 152.98 140.73C155.1 143.16 156.84 145.95 158.55 148.7C162.72 155.41 167.06 161.98 172.66 167.63C181.55 176.61 192.3 181.16 204.92 181.36C206.41 181.38 207.94 181.33 209.38 181.63C212.53 182.3 214.7 184.89 214.87 188.09C214.98 190.25 214.98 192.43 214.88 194.59C214.7 198.24 212.11 200.95 208.25 201.36C200.05 202.24 191.91 202.11 183.89 199.73C175.2 197.15 167.96 192.35 161.75 185.87C156.37 180.25 151.98 173.89 148.05 167.21C145.39 162.69 142.39 158.48 138.25 155.17C131.72 149.95 124.19 147.1 116.02 145.78C115.02 145.62 114 145.52 112.81 145.37C112.81 146.13 112.81 146.74 112.81 147.35C112.81 164.27 112.81 181.19 112.81 198.1C112.81 201.23 112.04 201.98 108.85 201.99C107.51 201.99 106.17 202 104.83 201.99C102.18 201.96 101.3 201.09 101.3 198.46C101.29 190 101.3 181.54 101.3 173.08C101.3 172.62 101.3 172.16 101.3 171.58C90.21 171.58 79.21 171.58 68.01 171.58C68.01 172.18 68.01 172.79 68.01 173.39C68.01 181.64 68.01 189.9 68.01 198.15C68.01 201.21 67.22 201.98 64.16 201.99C62.87 201.99 61.58 201.94 60.29 202C58.69 202.07 57.36 201.65 56.47 200.24C56.45 164.74 56.45 129.25 56.45 93.7601ZM101.2 127.86C90.12 127.86 79.13 127.86 68.14 127.86C68.14 132.21 68.14 136.44 68.14 140.65C79.24 140.65 90.2 140.65 101.2 140.65C101.2 136.34 101.2 132.13 101.2 127.86ZM101.19 162.36C101.19 158.08 101.19 153.99 101.19 149.89C90.1 149.89 79.11 149.89 68.11 149.89C68.11 154.11 68.11 158.2 68.11 162.36C79.17 162.36 90.13 162.36 101.19 162.36Z" fill="#41392F"/>
<path d="M130.4 102.6C130.4 97.0901 134.98 92.5201 140.45 92.5601C145.94 92.6001 150.55 97.2701 150.45 102.68C150.35 108.15 145.87 112.61 140.44 112.63C134.95 112.66 130.4 108.11 130.4 102.6Z" fill="#41392F"/>
<path d="M178.4 134.87C181.48 137.31 184.37 139.61 187.27 141.91C189.89 143.99 192.54 146.05 195.13 148.17C196.81 149.54 197.6 151.32 197.06 153.51C196.54 155.61 195.16 156.88 193.07 157.37C191.51 157.74 190.09 157.3 188.86 156.35C186.54 154.55 184.25 152.71 181.97 150.85C181.64 150.58 181.32 150.15 181.23 149.74C180.26 145.11 179.33 140.46 178.39 135.82C178.36 135.6 178.4 135.36 178.4 134.87Z" fill="#41392F"/>
</svg>
