<svg width="273" height="272" viewBox="0 0 273 272" fill="none" xmlns="http://www.w3.org/2000/svg">
<path d="M136.7 270.92C211.374 270.92 271.91 210.384 271.91 135.71C271.91 61.0356 211.374 0.5 136.7 0.5C62.0256 0.5 1.48999 61.0356 1.48999 135.71C1.48999 210.384 62.0256 270.92 136.7 270.92Z" stroke="#41392F" stroke-miterlimit="10"/>
<path d="M136.7 260.71C205.736 260.71 261.7 204.746 261.7 135.71C261.7 66.6744 205.736 10.71 136.7 10.71C67.6644 10.71 11.7 66.6744 11.7 135.71C11.7 204.746 67.6644 260.71 136.7 260.71Z" fill="#728040"/>
<path d="M152.45 200.83C152.45 200.37 152.45 200.01 152.45 199.64C152.45 193.01 152.45 186.38 152.45 179.75C152.45 177.4 151.65 176.59 149.32 176.59C148.95 176.59 148.58 176.59 148.26 176.59C148.18 176.48 148.11 176.42 148.11 176.37C148.36 173.58 146.99 171.54 145.04 169.78C142.74 167.7 140.08 166.21 137.25 165.01C136.95 164.88 136.48 164.86 136.22 165.01C133.78 166.41 131.25 167.7 128.98 169.35C126.65 171.03 125.01 173.3 125.39 176.6C124.79 176.6 124.26 176.6 123.74 176.6C121.95 176.62 121.01 177.55 121.01 179.35C121 186.11 121.01 192.88 121.01 199.64C121.01 200 121.01 200.36 121.01 200.83C120.55 200.83 120.19 200.83 119.83 200.83C112.06 200.83 104.28 200.83 96.51 200.83C92.67 200.83 90.34 198.49 90.34 194.67C90.34 181.07 90.34 167.48 90.34 153.88C90.34 149.97 92.63 147.67 96.54 147.67C123.33 147.67 150.11 147.67 176.9 147.67C180.86 147.67 183.12 149.97 183.12 153.97C183.12 167.53 183.12 181.09 183.12 194.65C183.12 198.48 180.8 200.82 176.97 200.82C169.2 200.82 161.42 200.82 153.65 200.82C153.28 200.83 152.92 200.83 152.45 200.83Z" fill="#41392F"/>
<path d="M136.68 132C127.87 132 119.05 131.99 110.24 132.02C109.37 132.02 108.94 131.73 108.55 130.98C106.18 126.46 104.92 121.68 104.8 116.57C104.7 112.18 106.36 108.44 108.94 105.03C112.27 100.62 116.55 97.2599 121.13 94.2699C125.81 91.2099 130.76 88.64 135.92 86.5C136.31 86.34 136.87 86.2299 137.23 86.3799C145.54 89.8899 153.4 94.1599 160.14 100.27C163.28 103.12 165.95 106.34 167.55 110.34C169.15 114.33 168.78 118.4 167.98 122.46C167.38 125.55 166.24 128.45 164.76 131.23C164.45 131.81 164.09 132.01 163.42 132.01C154.51 131.99 145.59 132 136.68 132Z" fill="#41392F"/>
<path d="M88.22 158.72C88.22 171.47 88.22 184.22 88.22 196.97C88.22 199.91 86.92 201.2 83.97 201.2C81.21 201.2 78.45 201.2 75.69 201.2C72.93 201.2 71.6 199.88 71.6 197.13C71.6 184.28 71.6 171.43 71.6 158.58C71.6 145.7 71.6 132.81 71.6 119.93C71.6 117.97 72.15 117.42 74.12 117.42C77.92 117.42 81.72 117.42 85.52 117.42C87.7 117.42 88.21 117.93 88.21 120.07C88.22 132.95 88.22 145.83 88.22 158.72Z" fill="#41392F"/>
<path d="M201.84 158.62C201.84 171.37 201.84 184.12 201.84 196.87C201.84 199.98 200.61 201.2 197.5 201.2C194.67 201.2 191.85 201.21 189.02 201.2C186.69 201.19 185.22 199.76 185.22 197.43C185.21 171.49 185.21 145.55 185.22 119.62C185.22 118.07 185.9 117.42 187.45 117.42C191.45 117.41 195.46 117.42 199.46 117.42C201.23 117.42 201.83 118.01 201.83 119.77C201.83 132.71 201.83 145.67 201.84 158.62C201.84 158.62 201.83 158.62 201.84 158.62Z" fill="#41392F"/>
<path d="M136.82 135.18C150.25 135.18 163.67 135.18 177.1 135.18C179.31 135.18 180.15 136.01 180.16 138.22C180.16 139.57 180.18 140.91 180.15 142.26C180.12 143.85 179.16 144.8 177.55 144.85C177.38 144.86 177.21 144.85 177.05 144.85C150.16 144.85 123.28 144.85 96.39 144.86C95.21 144.86 93.79 144.7 93.64 143.51C93.35 141.22 93.4299 138.86 93.5999 136.54C93.6599 135.73 94.6199 135.26 95.5399 135.19C95.8699 135.16 96.21 135.18 96.55 135.18C109.97 135.18 123.39 135.18 136.82 135.18Z" fill="#41392F"/>
<path d="M79.85 116.24C77.39 116.24 74.94 116.22 72.48 116.26C71.88 116.27 71.58 116.04 71.33 115.53C69.7 112.17 70.19 109.38 72.94 106.86C74.84 105.11 77.07 103.87 79.44 102.87C79.71 102.76 80.11 102.76 80.37 102.87C82.86 103.93 85.19 105.25 87.16 107.14C89.74 109.6 89.96 112.27 88.34 115.7C88.21 115.98 87.67 116.22 87.31 116.22C84.83 116.26 82.34 116.24 79.85 116.24Z" fill="#41392F"/>
<path d="M183.9 111.89C184.01 110.45 184.5 109.25 185.34 108.2C187.43 105.61 190.27 104.09 193.24 102.78C193.42 102.7 193.71 102.74 193.9 102.82C196.57 103.97 199.08 105.38 201.13 107.49C203.57 109.99 203.34 112.9 201.92 115.78C201.81 116.01 201.41 116.22 201.14 116.22C196.06 116.25 190.98 116.25 185.9 116.21C185.6 116.21 185.13 115.88 185.03 115.61C184.61 114.39 184.27 113.13 183.9 111.89Z" fill="#41392F"/>
<path d="M136.01 70.21C132.56 73.56 132.21 77.15 135.08 79.77C137.82 82.26 141.56 81.73 144.19 78.49C144.09 81.3 140.83 83.95 137.47 83.95C133.67 83.95 130.55 80.94 130.46 77.19C130.38 73.7 133.02 70.38 136.01 70.21Z" fill="#41392F"/>
</svg>
