<svg width="71" height="71" viewBox="0 0 71 71" fill="none" xmlns="http://www.w3.org/2000/svg">
<path d="M35.17 70.58C54.5939 70.58 70.34 54.8339 70.34 35.41C70.34 15.9861 54.5939 0.23999 35.17 0.23999C15.7461 0.23999 0 15.9861 0 35.41C0 54.8339 15.7461 70.58 35.17 70.58Z" fill="#41392F"/>
<path d="M19.97 18.45C19.97 18.45 21 17.8 21.54 17.8C22.08 17.8 24.54 17.8 24.54 17.8C24.54 17.8 25.35 17.94 25.71 18.78C26.08 19.62 28.61 25.57 28.8 26.03C28.99 26.49 29.48 27.62 28.69 28.64C27.9 29.66 26.25 31.56 26.25 31.56C26.25 31.56 25.6 32.15 26.16 33.08C26.73 34.02 28.72 37.1 31.32 39.43C33.92 41.76 37.11 43.48 38.7 44C40.29 44.52 40.64 43.83 41.25 43.04C41.86 42.26 43.75 39.86 43.75 39.86C43.75 39.86 44.4 38.9 45.69 39.49C46.97 40.08 53.22 43.1 53.22 43.1C53.22 43.1 53.98 43.23 54.02 44.08C54.06 44.93 54.59 47.47 52.32 49.91C50.06 52.35 45.24 53.48 42.96 52.85C40.68 52.21 33.15 50.24 28.23 45.66C23.31 41.08 19.34 36.25 17.71 32.7C16.08 29.14 16.17 27.03 16.26 26.04C16.36 25.03 16.88 20.42 19.97 18.45Z" fill="white"/>
</svg>
