<svg width="39" height="39" viewBox="0 0 39 39" fill="none" xmlns="http://www.w3.org/2000/svg">
<g clip-path="url(#clip0_5_317)">
<path d="M19.28 0.26C29.78 0.26 38.3 8.77 38.3 19.28C38.3 29.78 29.79 38.3 19.28 38.3C8.78 38.3 0.26 29.79 0.26 19.28C0.26 8.78 8.78 0.26 19.28 0.26ZM19.28 0C8.65 0 0 8.65 0 19.28C0 29.91 8.65 38.56 19.28 38.56C29.91 38.56 38.56 29.91 38.56 19.28C38.56 8.65 29.91 0 19.28 0Z" fill="white"/>
<path d="M29.74 19.41L12.97 10.64C12.85 10.58 12.72 10.55 12.59 10.55C12.46 10.55 12.22 10.58 12.1 10.64C11.86 10.76 11.61 10.99 11.61 11.24V28.77C11.61 29.02 11.86 29.24 12.1 29.37C12.22 29.43 12.4 29.46 12.54 29.46C12.67 29.46 12.83 29.43 12.95 29.37L29.73 20.6C29.97 20.48 30.12 20.25 30.12 20C30.11 19.76 29.98 19.53 29.74 19.41ZM12.47 28.77V11.24L29.24 20.01L12.47 28.77Z" fill="white"/>
</g>
<defs>
<clipPath id="clip0_5_317">
<rect width="38.56" height="38.56" fill="white"/>
</clipPath>
</defs>
</svg>
