<svg width="273" height="272" viewBox="0 0 273 272" fill="none" xmlns="http://www.w3.org/2000/svg">
<path d="M136.69 270.92C211.364 270.92 271.9 210.384 271.9 135.71C271.9 61.0356 211.364 0.5 136.69 0.5C62.0156 0.5 1.47998 61.0356 1.47998 135.71C1.47998 210.384 62.0156 270.92 136.69 270.92Z" stroke="#41392F" stroke-miterlimit="10"/>
<path d="M136.69 260.71C205.726 260.71 261.69 204.746 261.69 135.71C261.69 66.6744 205.726 10.71 136.69 10.71C67.6544 10.71 11.69 66.6744 11.69 135.71C11.69 204.746 67.6544 260.71 136.69 260.71Z" fill="#728040"/>
<path d="M77.48 147.87C117 147.87 156.4 147.87 195.93 147.87C195.95 148.23 195.98 148.57 195.98 148.91C195.98 164.75 195.98 180.59 195.98 196.43C195.98 199.35 194.14 201.2 191.22 201.2C154.88 201.2 118.54 201.2 82.19 201.2C79.32 201.2 77.44 199.35 77.43 196.52C77.42 180.61 77.43 164.71 77.43 148.8C77.44 148.52 77.47 148.24 77.48 147.87Z" fill="#41392F"/>
<path d="M136.7 143.39C111.24 143.39 85.79 143.36 60.33 143.43C57.08 143.44 55.02 141.28 55.16 138.22C55.27 135.75 55.18 133.27 55.18 130.79C55.18 127.35 56.91 125.61 60.34 125.61C95.93 125.61 131.52 125.61 167.12 125.61C182.44 125.61 197.76 125.61 213.08 125.6C214.46 125.6 215.74 125.82 216.78 126.81C217.79 127.76 218.22 128.95 218.22 130.32C218.22 133.06 218.22 135.8 218.22 138.53C218.21 141.59 216.41 143.39 213.35 143.39C187.8 143.4 162.25 143.39 136.7 143.39Z" fill="#41392F"/>
<path d="M121.61 86.8899C121.62 78.6299 126.54 72.1699 133.39 70.5799C140.91 68.8399 148.44 73.2599 150.97 80.8499C152.21 84.5799 151.85 88.3199 151.15 92.0499C150.3 96.5499 148.58 100.66 145.37 104.01C140.22 109.39 133.21 109.41 128.05 104.04C124.54 100.38 122.82 95.8499 122.05 90.9299C121.81 89.3399 121.7 87.7099 121.61 86.8899Z" fill="#41392F"/>
<path d="M107.52 121.13C108.99 113.71 116.46 106.86 124.68 106.44C125.03 108.86 126.69 110.27 128.74 111.17C134.02 113.5 139.37 113.5 144.65 111.18C146.7 110.28 148.37 108.88 148.72 106.46C156.54 106.79 164.29 113.32 165.9 121.14C146.46 121.13 127.03 121.13 107.52 121.13Z" fill="#41392F"/>
</svg>
