<svg width="273" height="273" viewBox="0 0 273 273" fill="none" xmlns="http://www.w3.org/2000/svg">
<path d="M136.7 271.71C211.374 271.71 271.91 211.174 271.91 136.5C271.91 61.8256 211.374 1.29004 136.7 1.29004C62.0256 1.29004 1.48999 61.8256 1.48999 136.5C1.48999 211.174 62.0256 271.71 136.7 271.71Z" stroke="#41392F" stroke-miterlimit="10"/>
<path d="M136.7 261.5C205.736 261.5 261.7 205.536 261.7 136.5C261.7 67.4644 205.736 11.5 136.7 11.5C67.6644 11.5 11.7 67.4644 11.7 136.5C11.7 205.536 67.6644 261.5 136.7 261.5Z" fill="#728040"/>
<path d="M65.84 102.21C65.84 101.56 65.84 100.92 65.84 100.27C65.92 100.11 66.04 99.9501 66.07 99.7801C67.67 90.93 69.23 82.0701 70.87 73.2301C71.34 70.7001 70.66 71.02 73.48 71.02C115.69 71.01 157.89 71.0101 200.1 71.0101C200.47 71.0101 200.84 71.0501 201.21 71.0001C202.08 70.9001 202.37 71.2701 202.52 72.1401C204.05 80.8201 205.57 89.4901 207.23 98.1401C207.71 100.62 207.77 102.99 206.83 105.32C204.62 110.81 200.53 113.93 194.65 114.3C189.11 114.65 184.75 112.24 182.02 107.42C180.87 105.4 180.39 102.99 179.55 100.62C176.51 100.62 173.16 100.62 169.67 100.62C169.52 104.5 168.15 107.87 165.35 110.53C162.52 113.22 159.09 114.56 155.15 114.37C149.69 114.11 142.71 110.21 141.88 100.68C138.46 100.68 135.04 100.68 131.62 100.68C131.13 108.63 125.62 113.54 119.14 114.33C115.9 114.72 112.87 113.89 110.19 112.11C106.12 109.4 104.16 105.42 103.85 100.65C100.32 100.65 96.97 100.65 93.74 100.65C93.39 102.15 93.19 103.57 92.72 104.91C90.78 110.46 86.76 113.7 81.01 114.28C75.42 114.84 70.87 112.56 67.94 107.68C66.94 106.04 66.52 104.05 65.84 102.21Z" fill="#41392F"/>
<path d="M73.2 123.6C83.43 125.87 91.85 123.09 98.71 115.25C103.7 121.12 109.98 124.39 117.74 124.39C125.45 124.38 131.72 121.17 136.76 115.23C141.8 121.16 148.1 124.4 155.86 124.39C163.58 124.37 169.84 121.13 174.79 115.29C184.63 124.13 187.44 125.05 200.33 123.67C200.33 149.75 200.33 175.81 200.33 202C157.98 202 115.63 202 73.2 202C73.2 175.86 73.2 149.78 73.2 123.6ZM151.32 188.16C162.48 188.16 173.56 188.16 184.64 188.16C184.64 171.11 184.64 154.15 184.64 137.23C173.48 137.23 162.43 137.23 151.32 137.23C151.32 154.24 151.32 171.16 151.32 188.16ZM88.87 158.29C102.43 158.29 115.83 158.29 129.21 158.29C129.21 151.2 129.21 144.21 129.21 137.24C115.71 137.24 102.31 137.24 88.87 137.24C88.87 144.28 88.87 151.24 88.87 158.29Z" fill="#41392F"/>
</svg>
