<svg width="71" height="71" viewBox="0 0 71 71" fill="none" xmlns="http://www.w3.org/2000/svg">
<path d="M35.17 70.37C54.5939 70.37 70.34 54.6239 70.34 35.2C70.34 15.7762 54.5939 0.0300293 35.17 0.0300293C15.7461 0.0300293 0 15.7762 0 35.2C0 54.6239 15.7461 70.37 35.17 70.37Z" fill="#41392F"/>
<path d="M45.88 42.43C45.38 42.43 44.87 42.25 44.47 41.88L34.82 32.92L25.92 41.82C25.11 42.63 23.8 42.63 22.99 41.82C22.18 41.01 22.18 39.7 22.99 38.89L33.31 28.57C34.1 27.78 35.37 27.76 36.19 28.52L47.31 38.84C48.15 39.62 48.2 40.93 47.42 41.77C46.99 42.21 46.44 42.43 45.88 42.43Z" fill="white"/>
</svg>
